<?xml version="1.0" encoding="UTF-8"?>
<svg
  width="257.8800109863281"
  height="108.81278512349942"
  viewBox="0 0 410 173"
  class="looka-1j8o68f"
>
  <defs id="SvgjsDefs1071"></defs>
  <g
    id="SvgjsG1072"
    featurekey="rootContainer"
    transform="matrix(1,0,0,1,0,0)"
    fill-opacity="0"
  >
    <rect
      xmlns="http://www.w3.org/2000/svg"
      width="410"
      height="173"
      rx="10"
      ry="10"
    ></rect>
  </g>
  <g
    id="SvgjsG1073"
    featurekey="symbolFeature-0"
    transform="matrix(1.6076137939425514,0,0,1.6076137939425514,-10.380686630847606,6.39579051273353)"
    fill="#fe0000"
  >
    <path
      xmlns="http://www.w3.org/2000/svg"
      fill-rule="evenodd"
      clip-rule="evenodd"
      fill="#fe0000"
      d="M72.229,61.167c0.318-0.813,0.604-1.599,0.847-2.347l5.31,2.066  V27.665l-14.397-5.603v18.935c-0.873-0.244-1.781-0.402-2.716-0.467V18.415l19.829,7.816v38.434L72.229,61.167z M72.883,54.512  c0,6.942-12.569,27.073-12.569,27.073S47.744,61.454,47.744,54.512c0-6.941,5.627-12.569,12.569-12.569  C67.255,41.942,72.883,47.57,72.883,54.512z M60.475,46.616c-4.45,0-8.058,3.607-8.058,8.058c0,4.449,3.607,8.057,8.058,8.057  s8.058-3.607,8.058-8.057C68.532,50.224,64.925,46.616,60.475,46.616z M60.636,58.863c-2.225,0-4.029-1.804-4.029-4.028  c0-2.226,1.805-4.029,4.029-4.029s4.028,1.804,4.028,4.029C64.664,57.06,62.86,58.863,60.636,58.863z M57.198,22.063l-14.396,5.603  v33.222l4.813-1.873c0.249,0.749,0.537,1.533,0.857,2.345l-8.387,3.307V26.231l19.829-7.816v22.088  c-0.932,0.026-1.84,0.146-2.716,0.351V22.063z M18.898,18.415l19.829,7.816v38.434l-19.829-7.817V18.415z M21.614,55.284  l14.396,5.603V27.665l-14.396-5.603V55.284z"
    ></path>
  </g>
  <g
    id="SvgjsG1074"
    featurekey="nameFeature-0"
    transform="matrix(2.7718198763711492,0,0,2.7718198763711492,136.2202082548768,-13.055065431460903)"
    fill="#fe0000"
  >
    <path
      d="M5.7219 11.952000000000002 l0 11.872 l4.3048 0 l0 -11.872 l3.6631 0 l0 27.995 l-3.6631 0 l0 -11.898 l-5.4011 0 l1.0963 0.82888 l0 11.07 l-3.6898 0 l0 -27.193 l-0.66845 -0.80214 l4.3583 0 z M21.280042245989307 35.8021 l4.3316 0 l0 -19.545 l-5.4011 0 l1.0695 0.82888 l0 18.717 z M29.274342245989306 14.678999999999998 l0 22.701 c0 1.4973 -1.1497 2.6471 -2.6471 2.6471 l-6.3636 0 c-1.4973 0 -2.6471 -1.1497 -2.6471 -2.6471 l0 -22.701 c0 -1.4171 1.1497 -2.6471 2.6471 -2.6471 l6.3636 0 c1.4973 0 2.6471 1.2299 2.6471 2.6471 z M36.91842406417113 39.946524 l-3.6898 0 l0 -27.166 l-0.66845 -0.82888 l4.3583 0 l0 27.995 z M52.95456310160428 16.203 l-3.984 0 l0 -4.2513 l11.658 0 l0 4.2513 l-5.0802 0 l1.0963 0.80214 l0 22.968 l-3.6898 0 l0 -23.77 z M68.16509572192514 23.824 l4.3048 0 l0 -7.6738 l-5.4011 0 l1.0963 0.82888 l0 6.8449 z M76.13339572192514 14.599 l0 10.802 c0 1.4973 -1.1497 2.6471 -2.6471 2.6471 l-0.50802 0 l3.1551 11.898 l-3.7968 0 l-3.1551 -11.898 l-2.1123 0 l1.0963 0.82888 l0 11.07 l-3.6898 0 l0 -23.797 l0 -3.3957 l-0.66845 -0.82888 l9.6791 0.026738 c1.4973 0 2.6471 1.1497 2.6471 2.6471 z M83.5627962566845 35.8021 l4.3316 0 l0 -19.545 l-5.4011 0 l1.0695 0.82888 l0 18.717 z M91.5570962566845 14.678999999999998 l0 22.701 c0 1.4973 -1.1497 2.6471 -2.6471 2.6471 l-6.3636 0 c-1.4973 0 -2.6471 -1.1497 -2.6471 -2.6471 l0 -22.701 c0 -1.4171 1.1497 -2.6471 2.6471 -2.6471 l6.3636 0 c1.4973 0 2.6471 1.2299 2.6471 2.6471 z"
    ></path>
  </g>
  <g
    id="SvgjsG1075"
    featurekey="sloganFeature-0"
    transform="matrix(2.4920865054728765,0,0,2.4920865054728765,138.9005168637027,103.10736632570772)"
    fill="#febb02"
  >
    <path
      d="M2.7139 11.5241 l2.6203 -5.5214 l2.0588 0 l-3.3422 7.0053 l3.3422 7.0053 l-2.0588 0 l-2.6203 -5.5214 l0 5.508 l-1.8449 0 l0 -13.463 l-0.42781 -0.53476 l2.2727 0 l0 5.5214 z M7.794119304812835 6.016 l1.9519 0 l0 5.1604 l2.1123 0 c0.70856 0 1.3235 0.57487 1.3235 1.3235 l0 7.5134 l-1.6043 0 l0 -6.992 l-2.3797 0 l0.54813 0.40107 l0 6.5909 l-1.6176 0 l0 -13.583 z M18.81012513368984 18.689799999999998 l0 -6.1497 c0 -0.74866 -0.57487 -1.3235 -1.3235 -1.3235 l-2.3797 0 c-0.73529 0 -1.3102 0.57487 -1.3102 1.3235 l0 6.1497 c0 0.73529 0.57487 1.3102 1.3102 1.3102 l2.3797 0 c0.74866 0 1.3235 -0.57487 1.3235 -1.3102 z M15.387725133689841 18.1684 l0 -4.7059 l-0.53476 -0.41444 l2.3529 0 l0 5.1203 l-1.8182 0 z M14.75932513368984 9.238 l2.0321 -2.0321 l1.0561 1.0561 l-2.0321 2.0321 z M23.943854545454546 11.2166 l2.8877 0.013369 l0 1.8316 l-3.1551 0 l0.54813 0.41444 l0 4.7059 l2.607 0 l0 1.8449 l-2.8877 0 c-0.74866 0 -1.3235 -0.61497 -1.3235 -1.3235 l0 -6.1631 c0 -0.74866 0.57487 -1.3235 1.3235 -1.3235 z M32.40638181818182 18.689799999999998 l0 -6.1497 c0 -0.74866 -0.57487 -1.3235 -1.3235 -1.3235 l-2.3797 0 c-0.73529 0 -1.3102 0.57487 -1.3102 1.3235 l0 6.1497 c0 0.73529 0.57487 1.3102 1.3102 1.3102 l2.3797 0 c0.74866 0 1.3235 -0.57487 1.3235 -1.3102 z M28.98398181818182 18.1684 l0 -4.7059 l-0.53476 -0.41444 l2.3529 0 l0 5.1203 l-1.8182 0 z M28.35558181818182 9.238 l2.0321 -2.0321 l1.0561 1.0561 l-2.0321 2.0321 z M38.50271122994652 5.976000000000001 l0 5.9358 l2.1524 0 l0 -5.9358 l1.8316 0 l0 13.997 l-1.8316 0 l0 -5.9492 l-2.7005 0 l0.54813 0.41444 l0 5.5348 l-1.8449 0 l0 -13.596 l-0.33422 -0.40107 l2.1791 0 z M44.344951871657756 13.0348 l0.54813 0.40107 l0 4.7193 l1.8182 0 l0 -5.1203 l-2.3663 0 z M48.31555187165775 12.5134 l0 6.1631 c0 0.70856 -0.61497 1.3235 -1.3235 1.3235 l-2.3797 0 c-0.74866 0 -1.3235 -0.61497 -1.3235 -1.3235 l0 -6.1631 c0 -0.74866 0.57487 -1.3235 1.3235 -1.3235 l2.3797 0 c0.74866 0 1.3235 0.61497 1.3235 1.3235 z M50.66843529411765 19.946524 l-1.5775 0 l0 -8.2754 l-0.33422 -0.40107 l1.9118 0 l0 8.6765 z M50.66843529411765 8.556 l0 1.8048 l-1.5775 0 l0 -1.8048 l1.5775 0 z M56.35022620320856 8.102 l-1.992 0 l0 -2.1257 l5.8289 0 l0 2.1257 l-2.5401 0 l0.54813 0.40107 l0 11.484 l-1.8449 0 l0 -11.885 z M59.29143989304813 20.053476 l0 -8.3824 l-0.33422 -0.41444 l3.2086 0 c0.73529 0 1.3102 0.57487 1.3102 1.3235 l0 0.50802 l-3.1283 0 l0.54813 0.41444 l0 6.5508 l-1.6043 0 z M64.91981818181819 13.0348 l0.54813 0.40107 l0 4.7193 l1.8182 0 l0 -5.1203 l-2.3663 0 z M68.89041818181818 12.5134 l0 6.1631 c0 0.70856 -0.61497 1.3235 -1.3235 1.3235 l-2.3797 0 c-0.74866 0 -1.3235 -0.61497 -1.3235 -1.3235 l0 -6.1631 c0 -0.74866 0.57487 -1.3235 1.3235 -1.3235 l2.3797 0 c0.74866 0 1.3235 0.61497 1.3235 1.3235 z M74.8663203208556 20.040107 l-1.6176 0 l0 -13.596 l-0.33422 -0.40107 l1.9519 0 l0 13.997 z M76.72463101604278 13.0348 l0.54813 0.40107 l0 4.7193 l1.8182 0 l0 -5.1203 l-2.3663 0 z M80.69523101604278 12.5134 l0 6.1631 c0 0.70856 -0.61497 1.3235 -1.3235 1.3235 l-2.3797 0 c-0.74866 0 -1.3235 -0.61497 -1.3235 -1.3235 l0 -6.1631 c0 -0.74866 0.57487 -1.3235 1.3235 -1.3235 l2.3797 0 c0.74866 0 1.3235 0.61497 1.3235 1.3235 z"
    ></path>
  </g>
</svg>