<?xml version="1.0" encoding="UTF-8" standalone="no"?>
<svg width="32px" height="32px" viewBox="0 0 32 32" version="1.1" xmlns="http://www.w3.org/2000/svg" xmlns:xlink="http://www.w3.org/1999/xlink">
    <!-- Generator: Sketch 47.1 (45422) - http://www.bohemiancoding.com/sketch -->
    <title>dia diem</title>
    <desc>Created with Sketch.</desc>
    <defs></defs>
    <g id="Page-1" stroke="none" stroke-width="1" fill="none" fill-rule="evenodd">
        <g id="dia-diem">
            <g id="Page-1-Copy-2" transform="translate(4.000000, 0.000000)">
                <path d="M12,0 C5.37252172,0 0,5.60344746 0,12.515793 C0,15.8768765 1.27747677,19.0864233 3.34461362,21.5038121 L12,32 L20.6553864,21.5038121 C22.7225232,19.0864233 24,15.8768765 24,12.515793 C24,5.60344746 18.6274783,0 12,0 M12,1.89420846 C17.615522,1.89420846 22.1838545,6.65890041 22.1838545,12.515793 C22.1838545,15.2832315 21.1326694,18.0999195 19.3001786,20.2426481 L19.2892817,20.2555287 L19.2783848,20.2684093 L12,29.0950419 L4.72161516,20.2684093 L4.71071829,20.2555287 L4.69982141,20.2426481 C2.86733057,18.0999195 1.81614553,15.2832315 1.81614553,12.515793 C1.81614553,6.65890041 6.38447801,1.89420846 12,1.89420846" id="Fill-1" fill="#9B9B9B"></path>
                <path d="M12,17 C9.2384807,17 7,14.7614322 7,11.9998054 C7,9.23856781 9.2384807,7 12,7 C14.7611301,7 17,9.23856781 17,11.9998054 C17,14.7614322 14.7611301,17 12,17" id="Fill-4" stroke="#9B9B9B" stroke-width="2"></path>
            </g>
        </g>
    </g>
</svg>